<svg xmlns="http://www.w3.org/2000/svg" width="71" height="57" fill="none"><rect width="51.926" height="35.949" x="7.681" y="20.186" fill="#fff" rx="2"/><rect width="49.926" height="33.949" x="8.681" y="21.186" stroke="#050505" stroke-width="2" rx="1"/><path fill="url(#paint0_linear)" d="M33.078 46.495a1 1 0 001.13 0l21.814-14.937c.81-.555.418-1.825-.566-1.825H11.83c-.983 0-1.376 1.27-.565 1.825l21.814 14.937z"/><path stroke="#050505" stroke-width="2" d="M34.58 39.613L57.778 23.07c.792-.566.392-1.815-.58-1.815H10.803c-.973 0-1.373 1.25-.58 1.815l23.195 16.543a1 1 0 001.162 0z"/><rect width="26.421" height="2" x="8.761" y="53.635" fill="#050505" rx="1" transform="rotate(-45 8.76 53.635)"/><rect width="14.446" height="2" x="57.033" y="55.361" fill="#050505" rx="1" transform="rotate(-135 57.033 55.361)"/><rect width="7.875" height="2" x="43.92" y="42.247" fill="#050505" rx="1" transform="rotate(-135 43.92 42.247)"/><path fill="#fff" fill-rule="evenodd" d="M52.685 35.632c9.563 0 17.316-7.753 17.316-17.316C70 8.753 62.248 1 52.685 1c-9.563 0-17.316 7.753-17.316 17.316 0 2.985.756 5.794 2.086 8.245-2.176 2.735-5.21 4.599-8.01 5.827-.918.404-.853 1.782.135 1.953 3.78.65 9.479 1.01 13.435-1.66a17.23 17.23 0 009.67 2.95z" clip-rule="evenodd"/><path fill="#050505" d="M37.044 26.562l.783.622.412-.518-.316-.581-.879.477zm-8.008 5.827l-.402-.916.402.916zm.134 1.952l.17-.986-.17.986zm13.435-1.659l.559-.829-.56-.377-.559.377.56.83zM68.59 18.316c0 9.011-7.305 16.316-16.316 16.316v2c10.115 0 18.316-8.2 18.316-18.316h-2zM52.275 2c9.01 0 16.316 7.305 16.316 16.316h2C70.59 8.2 62.39 0 52.275 0v2zM35.959 18.316C35.959 9.306 43.264 2 52.275 2V0C42.159 0 33.959 8.2 33.959 18.316h2zm1.964 7.769a16.249 16.249 0 01-1.964-7.769h-2c0 3.156.799 6.128 2.207 8.723l1.758-.954zm-8.485 7.22c2.881-1.266 6.075-3.213 8.389-6.12l-1.565-1.246c-2.038 2.56-4.913 4.342-7.628 5.534l.804 1.831zm-.098.05c-.012-.002-.008-.003.004.004s.023.017.032.028c.017.02.011.026.01.006a.103.103 0 01.013-.057c.003-.007.007-.011.011-.015a.091.091 0 01.028-.017l-.804-1.831a2.08 2.08 0 00-1.244 2.039c.047.804.587 1.638 1.61 1.814l.34-1.97zm12.705-1.502c-1.78 1.2-4 1.75-6.292 1.905-2.285.155-4.57-.086-6.413-.403L29 35.326c1.936.333 4.39.597 6.889.428 2.492-.17 5.099-.775 7.275-2.243l-1.119-1.658zm10.23 2.779a16.23 16.23 0 01-9.111-2.779l-1.119 1.658a18.24 18.24 0 0010.23 3.12v-2z"/><circle cx="43.104" cy="18.316" r="2.056" stroke="#050505" stroke-width="2"/><circle cx="52.272" cy="18.316" r="2.056" stroke="#050505" stroke-width="2"/><circle cx="61.438" cy="18.316" r="2.056" stroke="#050505" stroke-width="2"/><defs><linearGradient id="paint0_linear" x1="4.725" x2="62.561" y1="35.449" y2="35.449" gradientUnits="userSpaceOnUse"><stop stop-color="#FFBD39"/><stop offset="1" stop-color="#F9953A"/></linearGradient></defs></svg>
